# xmcd
#
# Track frame offsets: 
#        150
#        19220
#        44255
#        54589
#        75587
#        106622
#        140587
#        155408
#        187612
#        209999
#        226256
#        261677
#
# Disc length: 3692 seconds
#
# Revision: 2
# Processed by: cddbd v1.5.2PL0 Copyright (c) Steve Scherf et al.
# Submitted via: ExactAudioCopy v0.99pb5
#
DISCID=a10e6a0c
DTITLE=Leslie West - Sxty Minutes with Leslie West
DYEAR=2007
DGENRE=Blues
TTITLE0=The Cell
TTITLE1=Old Brown Shoe
TTITLE2=The Stealer
TTITLE3=Red House
TTITLE4=Theme For An Imaginary Western
TTITLE5=Spoonfull
TTITLE6=Honky Tonk Woman
TTITLE7=Stormy Monday
TTITLE8=Sea Of Fire
TTITLE9=Talk Dirty
TTITLE10=If Heartaches Were Nickels
TTITLE11=Alligator
EXTD=
EXTT0=
EXTT1=
EXTT2=
EXTT3=
EXTT4=
EXTT5=
EXTT6=
EXTT7=
EXTT8=
EXTT9=
EXTT10=
EXTT11=
PLAYORDER=
